<svg xmlns="http://www.w3.org/2000/svg" width="387" height="388" viewBox="0 0 387 388">
<g>
<path d="M 230.42 381.54 C210.67,385.32 208.91,385.40 192.00,383.41 C179.28,381.91 116.53,375.70 91.50,373.46 C58.15,370.48 37.68,368.08 36.64,367.04 C35.51,365.91 35.43,364.38 32.07,286.00 C30.95,259.88 29.75,234.29 29.41,229.14 L 28.80 219.79 L 22.46 220.47 C14.86,221.28 9.01,219.17 4.72,214.08 C2.46,211.39 2.00,209.89 2.00,205.15 C2.00,201.46 2.59,198.57 3.68,196.97 C5.58,194.18 23.23,175.21 45.50,152.04 C53.75,143.46 72.31,123.79 86.75,108.34 C101.19,92.89 114.25,79.73 115.77,79.10 C117.78,78.26 139.26,78.03 195.02,78.23 C269.44,78.49 271.59,78.55 274.80,80.50 C276.62,81.60 282.92,87.89 288.80,94.49 C299.69,106.70 333.44,142.60 365.45,176.00 C375.20,186.18 383.86,196.06 384.69,197.97 C386.66,202.46 386.01,210.76 383.43,214.25 C379.99,218.90 374.22,221.47 367.35,221.41 L 361.21 221.36 L 360.57 229.93 C360.22,234.64 359.49,243.45 358.96,249.50 C358.42,255.55 356.63,275.80 354.98,294.50 C350.62,344.01 349.14,358.27 348.27,359.06 C347.85,359.45 340.98,360.91 333.00,362.31 C319.70,364.64 275.29,372.97 230.42,381.54 ZM 175.50 374.66 C195.80,376.63 205.73,377.23 206.22,376.53 C206.62,375.96 206.96,341.98 206.98,301.00 C207.00,260.02 207.31,222.16 207.65,216.86 L 208.29 207.22 L 196.29 194.36 C183.45,180.59 154.87,150.88 133.59,129.19 L 120.54 115.87 L 114.02 122.70 C104.65,132.52 72.98,165.89 63.00,176.46 C58.33,181.41 50.07,190.08 44.66,195.72 C35.12,205.66 34.84,206.09 35.37,209.74 C35.68,211.81 36.22,222.39 36.58,233.25 C36.95,244.11 37.53,253.00 37.87,253.00 C38.22,253.00 38.52,257.84 38.55,263.75 C38.58,269.66 39.15,285.98 39.80,300.00 C40.46,314.02 41.29,333.27 41.65,342.76 C42.05,353.25 42.74,360.36 43.41,360.91 C44.27,361.61 67.53,364.21 91.69,366.31 L 94.88 366.58 L 95.19 341.04 C95.49,315.94 95.54,315.42 98.00,311.01 C102.68,302.60 109.28,298.73 119.00,298.67 C126.45,298.63 130.14,300.18 135.38,305.58 C142.67,313.08 143.00,314.79 143.00,344.52 C143.00,364.91 143.29,371.14 144.25,371.40 C144.94,371.59 159.00,373.05 175.50,374.66 ZM 214.00 296.67 C214.00,340.85 214.27,377.00 214.60,377.00 C214.93,377.00 224.94,375.16 236.85,372.90 C248.76,370.65 264.35,367.78 271.50,366.52 C278.65,365.27 294.17,362.41 306.00,360.16 C317.83,357.91 330.88,355.47 335.00,354.73 L 342.50 353.39 L 346.16 313.44 C348.18,291.48 350.55,264.50 351.43,253.50 C352.31,242.50 353.31,230.69 353.65,227.25 L 354.28 221.00 L 291.89 220.96 C257.57,220.93 227.54,220.53 225.15,220.07 C222.76,219.61 219.55,218.30 218.02,217.17 C216.48,216.04 214.95,215.38 214.61,215.72 C214.28,216.06 214.00,252.48 214.00,296.67 ZM 286.65 214.25 C312.97,214.40 342.73,214.63 352.80,214.76 C367.71,214.96 371.65,214.71 374.09,213.45 C377.46,211.71 379.00,208.54 379.00,203.36 C379.00,200.19 377.62,198.42 365.24,185.67 C340.50,160.19 299.54,116.81 286.18,101.93 C278.99,93.92 271.93,86.83 270.50,86.18 C268.59,85.31 250.37,85.00 200.95,85.00 C164.13,85.00 134.00,85.32 134.00,85.70 C134.00,86.09 139.29,91.84 145.75,98.48 C165.51,118.81 197.08,151.92 207.24,163.00 C212.53,168.77 221.66,178.23 227.51,184.00 C233.36,189.77 238.84,195.81 239.68,197.41 C241.23,200.34 241.14,208.41 239.53,212.24 C238.84,213.88 241.62,214.00 286.65,214.25 ZM 10.07 210.37 C11.61,212.32 13.05,213.00 15.65,213.00 C19.37,213.00 20.49,212.11 28.80,202.48 C31.16,199.74 36.58,193.90 40.83,189.50 C45.08,185.10 52.80,177.00 57.97,171.50 C63.14,166.00 72.59,156.10 78.97,149.50 C85.34,142.90 96.58,131.06 103.94,123.20 C111.31,115.33 118.20,108.43 119.26,107.86 C121.48,106.67 121.64,106.84 163.04,150.00 C177.02,164.57 192.80,181.00 198.12,186.50 C203.43,192.00 210.82,199.98 214.55,204.23 C218.27,208.49 222.18,212.24 223.23,212.57 C228.31,214.19 234.00,209.76 234.00,204.19 C234.00,201.27 232.84,199.55 226.21,192.63 C196.62,161.78 167.98,131.75 153.07,115.96 C127.74,89.14 123.42,85.00 120.76,85.00 C117.86,85.00 114.15,88.55 91.00,113.51 C80.82,124.48 67.10,139.10 60.50,146.01 C53.90,152.91 40.17,167.27 30.00,177.92 C19.83,188.57 10.72,198.46 9.76,199.89 C7.43,203.37 7.55,207.15 10.07,210.37 ZM 230.18 67.71 C224.90,70.30 223.50,70.52 210.50,70.78 C194.62,71.09 192.01,70.35 187.11,64.11 C174.84,48.51 175.03,24.08 187.53,10.18 C193.81,3.19 195.38,2.76 212.68,3.16 C226.73,3.48 227.74,3.64 232.17,6.24 C238.34,9.87 243.51,16.07 246.08,22.92 C247.77,27.43 248.10,30.22 247.82,37.50 C247.26,52.05 241.31,62.24 230.18,67.71 ZM 209.98 61.71 C215.62,64.69 220.39,64.61 226.83,61.40 C235.78,56.94 241.40,47.08 241.32,36.00 C241.20,21.15 231.20,10.00 217.98,10.00 C209.59,10.00 204.16,14.13 199.57,24.00 C196.78,30.03 196.13,39.33 198.03,46.18 C199.65,52.00 205.16,59.16 209.98,61.71 ZM 130.93 228.34 C125.86,231.20 115.77,231.54 109.64,229.07 C103.30,226.51 101.21,224.56 98.37,218.50 C92.72,206.48 97.24,191.53 108.21,185.90 C113.35,183.27 124.67,183.28 129.86,185.93 C132.96,187.51 141.00,195.04 141.00,196.37 C141.00,196.56 141.45,199.12 142.01,202.05 C143.94,212.25 139.10,223.73 130.93,228.34 ZM 236.95 106.49 C225.70,107.34 212.66,108.32 207.96,108.65 L 199.41 109.27 L 193.63 102.89 L 187.84 96.50 L 194.17 95.81 C197.65,95.43 210.80,94.37 223.38,93.45 L 246.26 91.78 L 252.33 97.85 C255.67,101.19 258.18,104.15 257.90,104.43 C257.62,104.71 248.19,105.64 236.95,106.49 ZM 226.06 52.16 C220.78,56.43 211.03,53.03 208.25,45.96 C207.05,42.91 206.16,42.00 204.35,42.00 C201.44,42.00 201.23,39.50 204.00,37.77 C206.38,36.28 206.64,34.00 204.43,34.00 C202.04,34.00 203.15,30.55 205.66,30.19 C206.93,30.01 208.31,28.68 209.04,26.91 C211.63,20.65 219.72,16.93 226.12,19.04 C228.54,19.84 229.59,20.16 229.79,20.77 C229.95,21.23 229.61,21.86 229.01,22.98 C228.98,23.04 228.95,23.10 228.91,23.16 C228.03,24.80 227.20,25.07 224.52,24.57 C220.72,23.86 216.93,25.28 215.19,28.07 C214.07,29.86 214.28,30.00 217.99,30.00 C221.33,30.00 222.00,30.33 222.00,32.00 C222.00,33.70 221.33,34.00 217.61,34.00 C214.76,34.00 213.02,34.49 212.68,35.40 C211.88,37.48 212.87,38.00 217.67,38.00 C221.32,38.00 222.00,38.31 222.00,39.98 C222.00,41.90 220.70,42.53 215.29,43.22 C213.13,43.49 213.13,43.55 214.90,45.89 C216.78,48.36 220.41,48.96 224.74,47.52 C228.09,46.40 229.04,49.74 226.06,52.16 ZM 109.54 219.90 C111.55,221.66 113.71,222.93 114.34,222.72 C114.99,222.51 115.63,219.83 115.80,216.67 L 116.10 211.00 L 102.95 211.00 L 104.42 213.85 C105.23,215.42 107.54,218.14 109.54,219.90 ZM 106.25 203.32 C107.49,203.57 110.07,203.71 112.00,203.64 L 115.50 203.50 L 115.80 197.75 C116.06,192.81 115.85,192.00 114.34,192.00 C112.34,192.00 104.00,199.77 104.00,201.64 C104.00,202.31 105.01,203.07 106.25,203.32 ZM 123.00 197.50 L 123.00 203.00 L 128.91 203.00 C134.43,203.00 134.78,202.86 134.26,200.89 C133.48,197.90 127.31,192.00 124.97,192.00 C123.25,192.00 123.00,192.70 123.00,197.50 ZM 123.00 217.00 C123.00,220.80 123.42,223.00 124.13,223.00 C125.88,223.00 134.00,214.47 134.00,212.63 C134.00,211.32 132.92,211.00 128.50,211.00 L 123.00 211.00 ZM 192.71 60.75 C194.49,63.18 195.87,64.00 198.13,64.00 L 201.17 64.00 L 198.15 60.19 C196.49,58.09 194.58,55.16 193.90,53.69 C192.99,51.69 191.95,51.00 189.84,51.00 C188.28,51.00 187.00,51.35 187.00,51.78 C187.00,52.61 188.86,55.53 192.71,60.75 ZM 187.00 23.70 C187.00,24.41 188.03,25.00 189.29,25.00 C191.05,25.00 192.21,23.77 194.28,19.75 C195.76,16.86 197.71,13.49 198.61,12.25 C199.93,10.43 199.97,10.00 198.84,10.00 C198.07,10.00 196.40,10.73 195.12,11.63 C192.53,13.44 187.00,21.66 187.00,23.70 ZM 185.71 44.38 C186.10,44.77 187.34,44.95 188.46,44.79 C190.26,44.53 190.50,43.78 190.50,38.25 C190.50,32.10 190.46,32.00 187.75,32.00 C185.06,32.00 185.00,32.14 185.00,37.83 C185.00,41.04 185.32,43.99 185.71,44.38 Z" fill="rgb(34,29,25)"/>
<path d="M 175.50 374.66 C159.00,373.05 144.94,371.59 144.25,371.40 C144.16,371.38 144.08,371.31 144.01,371.19 L 149.19 370.47 C152.05,370.08 155.00,369.14 155.76,368.38 C156.52,367.62 157.77,367.00 158.55,367.00 C159.32,367.00 160.68,365.59 161.57,363.87 C163.29,360.55 163.27,360.52 158.68,357.89 C157.66,357.31 155.14,357.14 153.00,357.50 C147.63,358.41 145.23,355.89 144.74,348.80 C144.54,345.89 144.29,349.73 144.18,357.34 L 144.00 371.17 C143.24,369.87 143.00,363.02 143.00,344.52 C143.00,327.58 142.89,319.74 141.45,314.74 C141.69,315.26 141.90,315.75 142.04,316.15 C143.98,321.63 148.00,318.96 148.00,312.19 C148.00,309.52 145.57,306.13 144.10,306.75 C143.77,306.89 143.50,306.47 143.50,305.83 C143.50,304.39 139.14,303.96 138.30,305.32 C137.93,305.92 138.21,305.99 139.00,305.50 C139.89,304.95 140.07,305.08 139.55,305.92 C138.99,306.83 138.28,306.60 136.86,305.08 C133.65,301.63 133.82,302.72 137.22,307.53 C136.66,306.91 136.05,306.27 135.38,305.58 C130.14,300.18 126.45,298.63 119.00,298.67 C109.28,298.73 102.68,302.60 98.00,311.01 C95.54,315.42 95.49,315.94 95.19,341.04 L 95.00 356.71 L 95.00 349.62 C95.00,341.07 94.72,339.00 93.57,339.00 C91.97,339.00 88.63,343.30 87.57,346.73 C87.19,347.96 85.56,349.74 83.94,350.70 C82.32,351.65 81.00,352.78 81.00,353.22 C81.00,353.65 80.44,354.00 79.75,354.00 C79.06,354.01 75.80,355.35 72.50,357.00 C69.20,358.65 65.94,359.99 65.25,360.00 C64.56,360.00 64.00,360.45 64.00,361.00 C64.00,361.55 63.21,362.05 62.25,362.11 C61.29,362.17 62.97,362.80 66.00,363.50 C72.79,365.08 85.37,365.42 84.50,364.00 C84.16,363.45 84.48,363.00 85.20,363.00 C85.93,363.00 87.07,362.11 87.75,361.02 C88.71,359.50 89.67,359.18 91.99,359.65 L 94.96 360.24 L 94.88 366.58 L 91.69 366.31 C73.25,364.71 55.35,362.82 47.51,361.70 C48.56,361.42 49.32,360.83 49.11,360.00 C48.52,357.76 48.62,354.92 49.44,350.87 C50.12,347.53 50.00,347.26 47.91,347.37 C43.31,347.63 43.20,338.93 47.69,329.78 C48.98,327.14 48.90,326.99 45.02,325.01 L 41.01 322.96 L 41.64 341.23 C41.93,349.72 42.51,357.32 43.03,359.91 C42.49,357.54 41.98,351.26 41.65,342.76 C41.29,333.27 40.46,314.02 39.80,300.00 C39.15,285.98 38.58,269.66 38.55,263.75 C38.52,257.84 38.22,253.00 37.87,253.00 C37.53,253.00 36.95,244.11 36.58,233.25 C36.22,222.39 35.68,211.81 35.37,209.74 C34.84,206.09 35.12,205.66 44.66,195.72 C50.07,190.08 58.33,181.41 63.00,176.46 C72.98,165.89 104.65,132.52 114.02,122.70 L 120.54 115.87 L 133.59 129.19 C151.36,147.30 174.22,171.01 188.76,186.35 C184.10,181.80 181.59,179.96 181.26,180.86 C180.84,182.01 180.62,182.01 179.86,180.86 C179.13,179.75 178.78,179.81 177.96,181.21 C177.40,182.15 176.34,182.69 175.60,182.40 C174.82,182.10 174.04,182.75 173.73,183.94 C173.39,185.21 172.37,186.00 171.04,186.00 C169.86,186.00 167.23,186.85 165.20,187.89 C158.25,191.44 155.03,192.07 151.92,190.46 C150.37,189.66 148.06,188.98 146.80,188.96 C145.53,188.95 143.38,188.29 142.00,187.50 C140.62,186.71 137.99,186.05 136.15,186.04 L 132.79 186.00 L 135.97 189.62 C137.12,190.93 138.34,192.54 139.21,193.86 C136.66,191.09 132.04,187.04 129.86,185.93 C124.67,183.28 113.35,183.27 108.21,185.90 C97.24,191.53 92.72,206.48 98.37,218.50 C101.21,224.56 103.30,226.51 109.64,229.07 C115.77,231.54 125.86,231.20 130.93,228.34 C131.84,227.83 132.71,227.23 133.53,226.55 L 130.50 229.58 L 135.47 228.29 C141.57,226.71 144.18,226.67 147.38,228.13 C148.74,228.75 151.07,228.95 152.55,228.58 L 155.25 227.90 L 153.00 225.50 C151.76,224.18 149.48,222.82 147.92,222.48 C146.37,222.14 143.95,220.96 142.55,219.86 C141.15,218.76 140.00,218.36 140.00,218.98 C140.00,219.48 138.59,221.31 136.66,223.38 C141.19,217.74 143.43,209.55 142.01,202.05 C141.64,200.08 141.31,198.28 141.13,197.25 C141.94,198.27 142.88,198.01 145.48,196.83 C147.47,195.92 148.33,195.93 149.28,196.88 C150.24,197.85 149.97,198.52 148.00,200.05 C145.88,201.69 145.73,202.14 147.00,202.98 C149.20,204.43 157.68,204.21 160.80,202.62 C162.28,201.86 166.88,200.71 171.00,200.06 C175.12,199.41 181.20,198.39 184.50,197.79 C189.85,196.83 192.92,196.34 195.25,196.08 C196.59,195.93 196.25,194.63 194.16,192.08 C194.91,192.88 195.63,193.64 196.29,194.36 L 208.29 207.22 L 207.65 216.86 C207.31,222.16 207.00,260.02 206.98,301.00 C206.96,341.98 206.62,375.96 206.22,376.53 C206.19,376.58 206.11,376.62 206.00,376.65 C206.40,375.90 206.40,374.44 206.17,371.98 C205.82,368.36 205.63,368.09 204.54,369.69 C203.86,370.68 203.01,372.70 202.65,374.18 C202.30,375.59 202.31,376.36 202.79,376.80 C198.27,376.70 189.27,375.99 175.50,374.66 ZM 10.07 210.37 C7.55,207.15 7.43,203.37 9.76,199.89 C10.72,198.46 19.83,188.57 30.00,177.92 C40.17,167.27 53.90,152.91 60.50,146.01 C67.10,139.10 80.82,124.48 91.00,113.51 C114.15,88.55 117.86,85.00 120.76,85.00 C123.42,85.00 127.74,89.14 153.07,115.96 C167.98,131.75 196.62,161.78 226.21,192.63 C232.84,199.55 234.00,201.27 234.00,204.19 C234.00,209.76 228.31,214.19 223.23,212.57 C222.18,212.24 218.27,208.49 214.55,204.23 C210.82,199.98 203.43,192.00 198.12,186.50 C192.80,181.00 177.02,164.57 163.04,150.00 C121.64,106.84 121.48,106.67 119.26,107.86 C118.20,108.43 111.31,115.33 103.94,123.20 C96.58,131.06 85.34,142.90 78.97,149.50 C72.59,156.10 63.14,166.00 57.97,171.50 C52.80,177.00 45.08,185.10 40.83,189.50 C36.58,193.90 31.16,199.74 28.80,202.48 C20.49,212.11 19.37,213.00 15.65,213.00 C13.05,213.00 11.61,212.32 10.07,210.37 ZM 214.00 296.67 C214.00,252.48 214.28,216.06 214.61,215.72 C214.95,215.38 216.48,216.04 218.02,217.17 C219.55,218.30 222.76,219.61 225.15,220.07 C227.54,220.53 257.57,220.93 291.89,220.96 L 354.28 221.00 L 353.65 227.25 C353.31,230.69 352.31,242.50 351.43,253.50 C351.16,256.86 350.75,261.71 350.26,267.46 C350.93,259.50 351.41,253.44 351.57,250.74 L 352.28 238.98 L 321.89 239.41 C305.18,239.64 277.97,240.17 261.44,240.57 C244.91,240.98 230.13,241.00 228.58,240.61 C227.04,240.22 223.54,237.61 220.80,234.79 C216.90,230.79 215.62,229.99 214.92,231.09 C214.42,231.88 214.02,264.10 214.02,304.75 C214.01,309.82 214.02,314.76 214.02,319.54 C214.01,312.29 214.00,304.61 214.00,296.67 ZM 205.00 362.74 C205.00,363.43 205.23,364.00 205.50,364.00 C205.77,364.00 205.96,359.39 205.92,353.75 C205.88,348.11 205.61,344.07 205.34,344.76 C205.06,345.45 204.45,345.78 203.98,345.49 C203.52,345.20 202.33,346.32 201.35,347.98 C200.37,349.64 199.22,351.00 198.78,351.00 C198.35,351.00 198.00,352.05 198.00,353.33 C198.00,354.76 199.34,356.77 201.50,358.57 C203.43,360.18 205.00,362.05 205.00,362.74 ZM 199.00 216.40 C199.00,218.77 199.36,219.00 203.00,219.00 L 207.00 219.00 L 207.00 212.67 C207.00,209.18 206.73,206.06 206.40,205.74 C205.50,204.83 202.93,206.08 203.56,207.10 C203.87,207.60 203.74,208.00 203.27,208.00 C201.87,208.00 199.00,213.64 199.00,216.40 ZM 164.33 373.31 C167.45,373.91 179.74,373.94 178.24,373.34 C177.55,373.06 177.22,372.45 177.51,371.99 C178.09,371.05 177.08,370.69 168.72,368.90 C164.86,368.08 162.60,368.00 161.93,368.67 C160.46,370.14 161.85,372.82 164.33,373.31 ZM 176.00 181.25 C176.00,181.87 176.61,181.55 177.35,180.54 C178.16,179.43 179.19,179.00 179.95,179.47 C180.90,180.06 180.96,179.80 180.17,178.37 C178.55,175.44 160.82,158.27 161.62,160.41 C162.18,161.90 162.02,162.14 160.92,161.46 C160.14,160.99 160.83,162.38 162.46,164.55 C164.08,166.72 164.70,167.93 163.82,167.22 C162.51,166.17 162.12,166.23 161.59,167.62 C161.24,168.54 161.19,169.52 161.48,169.81 C161.76,170.10 162.00,169.88 162.00,169.33 C162.00,168.69 163.73,168.58 166.69,169.03 C170.17,169.56 172.11,170.56 174.22,172.92 C175.78,174.67 176.75,176.59 176.37,177.20 C175.96,177.87 176.15,178.03 176.85,177.60 C177.48,177.20 178.00,177.33 178.00,177.88 C178.00,178.43 177.55,179.16 177.00,179.50 C176.45,179.84 176.00,180.63 176.00,181.25 ZM 137.00 144.59 C141.47,146.20 141.75,146.22 142.55,144.92 C143.85,142.82 134.26,137.59 131.89,139.09 C131.01,139.65 130.93,139.97 131.68,139.98 C132.32,139.99 133.00,140.75 133.18,141.66 C133.35,142.58 135.07,143.89 137.00,144.59 ZM 123.00 217.00 L 123.00 211.00 L 128.50 211.00 C128.58,211.00 128.66,211.00 128.74,211.00 C124.62,211.01 124.00,211.30 124.00,213.02 C124.00,214.20 125.03,215.51 126.47,216.17 C127.83,216.79 128.70,217.68 128.41,218.15 C127.57,219.50 128.53,219.34 129.81,218.41 C127.54,220.81 125.02,223.00 124.13,223.00 C123.42,223.00 123.00,220.80 123.00,217.00 ZM 40.14 296.00 C40.27,301.75 40.38,301.35 41.04,292.60 C41.62,285.00 41.46,281.86 40.38,279.10 C39.00,275.58 38.98,275.66 39.48,282.50 C39.76,286.35 40.05,292.42 40.14,296.00 ZM 227.56 222.50 C228.63,223.32 230.40,223.78 231.50,223.51 C232.60,223.24 234.96,223.02 236.75,223.01 C238.54,223.01 240.00,222.55 240.00,222.00 C240.00,221.43 236.94,221.00 232.81,221.00 C226.23,221.00 225.78,221.13 227.56,222.50 ZM 350.54 225.62 C352.72,226.87 353.96,225.84 353.98,222.75 C354.00,220.81 353.63,220.72 349.17,221.62 C345.93,222.26 346.24,223.15 350.54,225.62 ZM 214.72 161.00 C214.81,162.10 214.06,163.44 213.05,163.97 C211.61,164.75 211.26,164.59 211.37,163.22 C211.44,162.23 210.79,161.49 209.82,161.49 C208.90,161.48 207.77,161.07 207.32,160.58 C206.84,160.05 207.09,160.02 207.92,160.50 C208.94,161.10 209.18,160.91 208.77,159.84 C208.36,158.77 208.80,158.42 210.35,158.59 C211.53,158.72 212.97,158.87 213.54,158.92 C214.11,158.96 214.64,159.90 214.72,161.00 ZM 96.67 194.33 C97.95,195.62 98.96,194.97 100.58,191.85 C102.09,188.92 102.09,188.75 100.52,189.35 C99.59,189.71 98.20,190.00 97.42,190.00 C95.98,190.00 95.44,193.11 96.67,194.33 ZM 193.39 148.21 C195.08,149.97 196.79,151.74 198.48,153.50 C212.77,168.35 227.62,183.79 231.48,187.81 C234.08,190.52 236.64,193.42 238.26,195.47 C236.09,192.82 231.90,188.34 227.51,184.00 C221.66,178.23 212.53,168.77 207.24,163.00 C204.22,159.71 199.31,154.48 193.39,148.21 ZM 53.00 317.38 C53.00,318.27 53.67,319.00 54.50,319.00 C55.33,319.00 56.00,318.83 56.00,318.62 C56.00,318.41 55.33,317.68 54.50,317.00 C53.27,315.98 53.00,316.05 53.00,317.38 ZM 165.00 164.62 C165.00,165.45 164.18,164.92 162.87,163.25 C161.63,161.66 161.66,161.63 163.25,162.87 C164.21,163.63 165.00,164.41 165.00,164.62 ZM 145.75 98.48 C139.63,92.19 134.56,86.69 134.04,85.80 C134.56,86.69 139.63,92.17 145.75,98.46 C149.74,102.55 154.56,107.55 158.64,111.81 C154.05,107.05 149.67,102.51 145.75,98.48 ZM 133.94 212.96 C134.18,211.68 133.07,211.15 130.40,211.03 C133.24,211.13 134.00,211.53 134.00,212.63 C134.00,212.72 133.98,212.83 133.94,212.96 ZM 239.68 197.40 C239.75,197.52 239.81,197.62 239.86,197.72 C240.45,198.83 240.75,200.99 240.78,203.39 C240.72,200.94 240.36,198.69 239.68,197.41 ZM 342.50 353.39 L 335.00 354.73 L 342.50 353.39 L 342.50 353.39 Z" fill="rgb(193,104,70)"/>
<path d="M 286.65 214.25 C241.62,214.00 238.84,213.88 239.53,212.24 C240.44,210.08 240.86,206.56 240.78,203.39 C240.75,200.99 240.45,198.83 239.86,197.72 C239.81,197.62 239.75,197.52 239.68,197.40 C239.46,197.00 238.97,196.33 238.26,195.47 L 238.26 195.46 C236.63,193.42 234.08,190.52 231.48,187.81 C227.62,183.79 212.77,168.35 198.48,153.50 C196.79,151.74 195.08,149.97 193.39,148.21 L 193.39 148.21 C183.32,137.56 170.32,123.94 158.64,111.81 C154.56,107.55 149.74,102.55 145.75,98.46 C139.63,92.17 134.56,86.69 134.04,85.80 C134.02,85.77 134.01,85.73 134.00,85.71 C134.00,85.71 134.00,85.70 134.00,85.70 C134.00,85.32 164.13,85.00 200.95,85.00 C250.37,85.00 268.59,85.31 270.50,86.18 C271.93,86.83 278.99,93.92 286.18,101.93 C299.54,116.81 340.50,160.19 365.24,185.67 C377.62,198.42 379.00,200.19 379.00,203.36 C379.00,208.54 377.46,211.71 374.09,213.45 C371.65,214.71 367.71,214.96 352.80,214.76 C342.73,214.63 312.97,214.40 286.65,214.25 ZM 214.60 377.00 C214.33,377.00 214.10,352.67 214.02,319.54 L 214.02 319.54 C214.02,314.76 214.01,309.81 214.02,304.75 C214.02,264.10 214.42,231.88 214.92,231.09 C215.62,229.99 216.90,230.79 220.80,234.79 C223.54,237.61 227.04,240.22 228.58,240.61 C230.13,241.00 244.91,240.98 261.44,240.57 C277.97,240.17 305.18,239.64 321.89,239.41 L 352.28 238.98 L 351.57 250.74 C351.41,253.44 350.93,259.50 350.26,267.45 L 350.26 267.46 C349.13,280.51 347.56,298.19 346.16,313.44 L 342.50 353.39 L 335.00 354.73 C330.88,355.47 317.83,357.91 306.00,360.16 C294.17,362.41 278.65,365.27 271.50,366.52 C264.35,367.78 248.76,370.65 236.85,372.90 C224.94,375.16 214.93,377.00 214.60,377.00 ZM 209.98 61.71 C205.16,59.16 199.65,52.00 198.03,46.18 C196.13,39.33 196.78,30.03 199.57,24.00 C204.16,14.13 209.59,10.00 217.98,10.00 C231.20,10.00 241.20,21.15 241.32,36.00 C241.40,47.08 235.78,56.94 226.83,61.40 C220.39,64.61 215.62,64.69 209.98,61.71 ZM 236.95 106.49 C248.19,105.64 257.62,104.71 257.90,104.43 C258.18,104.15 255.67,101.19 252.33,97.85 L 246.26 91.78 L 223.38 93.45 C210.80,94.37 197.65,95.43 194.17,95.81 L 187.84 96.50 L 193.63 102.89 L 199.41 109.27 L 207.96 108.65 C212.66,108.32 225.70,107.34 236.95,106.49 ZM 188.76 186.35 C190.72,188.43 192.54,190.35 194.16,192.08 C196.25,194.63 196.59,195.93 195.25,196.08 C192.92,196.34 189.85,196.83 184.50,197.79 C181.20,198.39 175.12,199.41 171.00,200.06 C166.88,200.71 162.28,201.86 160.80,202.62 C157.68,204.21 149.20,204.43 147.00,202.98 C145.73,202.14 145.88,201.69 148.00,200.05 C149.97,198.52 150.24,197.85 149.28,196.88 C148.33,195.93 147.47,195.92 145.48,196.83 C142.88,198.01 141.94,198.27 141.13,197.25 C141.05,196.75 141.00,196.43 141.00,196.37 C141.00,195.97 140.29,195.03 139.21,193.86 C138.34,192.54 137.12,190.93 135.97,189.62 L 132.79 186.00 L 136.15 186.04 C137.99,186.05 140.62,186.71 142.00,187.50 C143.38,188.29 145.53,188.95 146.80,188.96 C148.06,188.98 150.37,189.66 151.92,190.46 C155.03,192.07 158.25,191.44 165.20,187.89 C167.23,186.85 169.86,186.00 171.04,186.00 C172.37,186.00 173.39,185.21 173.73,183.94 C174.04,182.75 174.82,182.10 175.60,182.40 C176.34,182.69 177.40,182.15 177.96,181.21 C178.78,179.81 179.13,179.75 179.86,180.86 C180.62,182.01 180.84,182.01 181.26,180.86 C181.59,179.96 184.10,181.80 188.76,186.35 ZM 226.06 52.16 C229.04,49.74 228.09,46.40 224.74,47.52 C220.41,48.96 216.78,48.36 214.90,45.89 C213.13,43.55 213.13,43.49 215.29,43.22 C220.70,42.53 222.00,41.90 222.00,39.98 C222.00,38.31 221.32,38.00 217.67,38.00 C212.87,38.00 211.88,37.48 212.68,35.40 C213.02,34.49 214.76,34.00 217.61,34.00 C221.33,34.00 222.00,33.70 222.00,32.00 C222.00,30.33 221.33,30.00 217.99,30.00 C214.28,30.00 214.07,29.86 215.19,28.07 C216.93,25.28 220.72,23.86 224.52,24.57 C227.20,25.07 228.03,24.80 228.91,23.16 C228.95,23.10 228.98,23.04 229.01,22.98 C229.61,21.86 229.95,21.23 229.79,20.77 C229.59,20.16 228.54,19.84 226.12,19.04 C219.72,16.93 211.63,20.65 209.04,26.91 C208.31,28.68 206.93,30.01 205.66,30.19 C203.15,30.55 202.04,34.00 204.43,34.00 C206.64,34.00 206.38,36.28 204.00,37.77 C201.23,39.50 201.44,42.00 204.35,42.00 C206.16,42.00 207.05,42.91 208.25,45.96 C211.03,53.03 220.78,56.43 226.06,52.16 ZM 95.00 356.71 L 94.96 360.24 L 91.99 359.65 C89.67,359.18 88.71,359.50 87.75,361.02 C87.07,362.11 85.93,363.00 85.20,363.00 C84.48,363.00 84.16,363.45 84.50,364.00 C85.37,365.42 72.79,365.08 66.00,363.50 C62.97,362.80 61.29,362.17 62.25,362.11 C63.21,362.05 64.00,361.55 64.00,361.00 C64.00,360.45 64.56,360.00 65.25,360.00 C65.94,359.99 69.20,358.65 72.50,357.00 C75.80,355.35 79.06,354.01 79.75,354.00 C80.44,354.00 81.00,353.65 81.00,353.22 C81.00,352.78 82.32,351.65 83.94,350.70 C85.56,349.74 87.19,347.96 87.57,346.73 C88.63,343.30 91.97,339.00 93.57,339.00 C94.72,339.00 95.00,341.07 95.00,349.62 ZM 144.01 371.19 C144.01,371.18 144.00,371.18 144.00,371.17 L 144.18 357.34 C144.29,349.73 144.54,345.89 144.74,348.80 C145.23,355.89 147.63,358.41 153.00,357.50 C155.14,357.14 157.66,357.31 158.68,357.89 C163.27,360.52 163.29,360.55 161.57,363.87 C160.68,365.59 159.32,367.00 158.55,367.00 C157.77,367.00 156.52,367.62 155.76,368.38 C155.00,369.14 152.05,370.08 149.19,370.47 ZM 43.41 360.91 C43.28,360.80 43.15,360.46 43.03,359.91 C42.51,357.32 41.93,349.72 41.64,341.23 L 41.01 322.96 L 45.02 325.01 C48.90,326.99 48.98,327.14 47.69,329.78 C43.20,338.93 43.31,347.63 47.91,347.37 C50.00,347.26 50.12,347.53 49.44,350.87 C48.62,354.92 48.52,357.76 49.11,360.00 C49.32,360.83 48.56,361.42 47.51,361.70 C45.07,361.35 43.61,361.07 43.41,360.91 ZM 130.50 229.58 L 133.53 226.55 C134.67,225.63 135.71,224.56 136.66,223.38 C138.59,221.31 140.00,219.48 140.00,218.98 C140.00,218.36 141.15,218.76 142.55,219.86 C143.95,220.96 146.37,222.14 147.92,222.48 C149.48,222.82 151.76,224.18 153.00,225.50 L 155.25 227.90 L 152.55 228.58 C151.07,228.95 148.74,228.75 147.38,228.13 C144.18,226.67 141.57,226.71 135.47,228.29 ZM 109.54 219.90 C107.54,218.14 105.23,215.42 104.42,213.85 L 102.95 211.00 L 116.10 211.00 L 115.80 216.67 C115.63,219.83 114.99,222.51 114.34,222.72 C113.71,222.93 111.55,221.66 109.54,219.90 ZM 141.45 314.74 C140.59,311.77 139.27,309.80 137.22,307.53 C133.82,302.72 133.65,301.63 136.86,305.08 C138.28,306.60 138.99,306.83 139.55,305.92 C140.07,305.08 139.89,304.95 139.00,305.50 C138.21,305.99 137.93,305.92 138.30,305.32 C139.14,303.96 143.50,304.39 143.50,305.83 C143.50,306.47 143.77,306.89 144.10,306.75 C145.57,306.13 148.00,309.52 148.00,312.19 C148.00,318.96 143.98,321.63 142.04,316.15 C141.90,315.75 141.69,315.26 141.45,314.74 ZM 106.25 203.32 C105.01,203.07 104.00,202.31 104.00,201.64 C104.00,199.77 112.34,192.00 114.34,192.00 C115.85,192.00 116.06,192.81 115.80,197.75 L 115.50 203.50 L 112.00 203.64 C110.07,203.71 107.49,203.57 106.25,203.32 ZM 123.00 197.50 C123.00,192.70 123.25,192.00 124.97,192.00 C127.31,192.00 133.48,197.90 134.26,200.89 C134.78,202.86 134.43,203.00 128.91,203.00 L 123.00 203.00 ZM 205.00 362.74 C205.00,362.05 203.43,360.18 201.50,358.57 C199.34,356.77 198.00,354.76 198.00,353.33 C198.00,352.05 198.35,351.00 198.78,351.00 C199.22,351.00 200.37,349.64 201.35,347.98 C202.33,346.32 203.52,345.20 203.98,345.49 C204.45,345.78 205.06,345.45 205.34,344.76 C205.61,344.07 205.88,348.11 205.92,353.75 C205.96,359.39 205.77,364.00 205.50,364.00 C205.23,364.00 205.00,363.43 205.00,362.74 ZM 199.00 216.40 C199.00,213.64 201.87,208.00 203.27,208.00 C203.74,208.00 203.87,207.60 203.56,207.10 C202.93,206.08 205.50,204.83 206.40,205.74 C206.73,206.06 207.00,209.18 207.00,212.67 L 207.00 219.00 L 203.00 219.00 C199.36,219.00 199.00,218.77 199.00,216.40 ZM 192.71 60.75 C188.86,55.53 187.00,52.61 187.00,51.78 C187.00,51.35 188.28,51.00 189.84,51.00 C191.95,51.00 192.99,51.69 193.90,53.69 C194.58,55.16 196.49,58.09 198.15,60.19 L 201.17 64.00 L 198.13 64.00 C195.87,64.00 194.49,63.18 192.71,60.75 ZM 164.33 373.31 C161.85,372.82 160.46,370.14 161.93,368.67 C162.60,368.00 164.86,368.08 168.72,368.90 C177.08,370.69 178.09,371.05 177.51,371.99 C177.22,372.45 177.55,373.06 178.24,373.34 C179.74,373.94 167.45,373.91 164.33,373.31 ZM 176.00 181.25 C176.00,180.63 176.45,179.84 177.00,179.50 C177.55,179.16 178.00,178.43 178.00,177.88 C178.00,177.33 177.48,177.20 176.85,177.60 C176.15,178.03 175.96,177.87 176.37,177.20 C176.75,176.59 175.78,174.67 174.22,172.92 C172.11,170.56 170.17,169.56 166.69,169.03 C163.73,168.58 162.00,168.69 162.00,169.33 C162.00,169.88 161.76,170.10 161.48,169.81 C161.19,169.52 161.24,168.54 161.59,167.62 C162.12,166.23 162.51,166.17 163.82,167.22 C164.70,167.93 164.08,166.72 162.46,164.55 C160.83,162.38 160.14,160.99 160.92,161.46 C162.02,162.14 162.18,161.90 161.62,160.41 C160.82,158.27 178.55,175.44 180.17,178.37 C180.96,179.80 180.90,180.06 179.95,179.47 C179.19,179.00 178.16,179.43 177.35,180.54 C176.61,181.55 176.00,181.87 176.00,181.25 ZM 185.71 44.38 C185.32,43.99 185.00,41.04 185.00,37.83 C185.00,32.14 185.06,32.00 187.75,32.00 C190.46,32.00 190.50,32.10 190.50,38.25 C190.50,43.78 190.26,44.53 188.46,44.79 C187.34,44.95 186.10,44.77 185.71,44.38 ZM 133.94 212.96 C133.59,214.05 131.80,216.31 129.81,218.41 C128.53,219.34 127.57,219.50 128.41,218.15 C128.70,217.68 127.83,216.79 126.47,216.17 C125.03,215.51 124.00,214.20 124.00,213.02 C124.00,211.30 124.62,211.01 128.74,211.00 C129.36,211.00 129.91,211.01 130.40,211.03 C133.07,211.15 134.18,211.68 133.94,212.96 ZM 187.00 23.70 C187.00,22.01 190.81,16.05 193.59,13.04 C193.35,13.54 193.58,14.02 194.18,14.76 C195.29,16.12 195.27,16.25 194.10,15.54 C193.14,14.96 192.92,15.06 193.40,15.85 C194.39,17.44 195.14,17.29 197.04,14.74 C196.16,16.23 195.14,18.07 194.28,19.75 C192.21,23.77 191.05,25.00 189.29,25.00 C188.03,25.00 187.00,24.41 187.00,23.70 ZM 137.00 144.59 C135.07,143.89 133.35,142.58 133.18,141.66 C133.00,140.75 132.32,139.99 131.68,139.98 C130.93,139.97 131.01,139.65 131.89,139.09 C134.26,137.59 143.85,142.82 142.55,144.92 C141.75,146.22 141.47,146.20 137.00,144.59 ZM 40.14 296.00 C40.05,292.42 39.76,286.35 39.48,282.50 C38.98,275.66 39.00,275.58 40.38,279.10 C41.46,281.86 41.62,285.00 41.04,292.60 C40.38,301.35 40.27,301.75 40.14,296.00 ZM 227.56 222.50 C225.78,221.13 226.23,221.00 232.81,221.00 C236.94,221.00 240.00,221.43 240.00,222.00 C240.00,222.55 238.54,223.01 236.75,223.01 C234.96,223.02 232.60,223.24 231.50,223.51 C230.40,223.78 228.63,223.32 227.56,222.50 ZM 350.54 225.62 C346.24,223.15 345.93,222.26 349.17,221.62 C353.63,220.72 354.00,220.81 353.98,222.75 C353.96,225.84 352.72,226.87 350.54,225.62 ZM 214.72 161.00 C214.64,159.90 214.11,158.96 213.54,158.92 C212.97,158.87 211.53,158.72 210.35,158.59 C208.80,158.42 208.36,158.77 208.77,159.84 C209.18,160.91 208.94,161.10 207.92,160.50 C207.09,160.02 206.84,160.05 207.32,160.58 C207.77,161.07 208.90,161.48 209.82,161.49 C210.79,161.49 211.44,162.23 211.37,163.22 C211.26,164.59 211.61,164.75 213.05,163.97 C214.06,163.44 214.81,162.10 214.72,161.00 ZM 206.00 376.65 C205.55,376.79 204.49,376.84 202.79,376.80 C202.31,376.36 202.30,375.59 202.65,374.18 C203.01,372.70 203.86,370.68 204.54,369.69 C205.63,368.09 205.82,368.36 206.17,371.98 C206.40,374.44 206.40,375.90 206.00,376.65 ZM 96.67 194.33 C95.44,193.11 95.98,190.00 97.42,190.00 C98.20,190.00 99.59,189.71 100.52,189.35 C102.09,188.75 102.09,188.92 100.58,191.85 C98.96,194.97 97.95,195.62 96.67,194.33 ZM 53.00 317.38 C53.00,316.05 53.27,315.98 54.50,317.00 C55.33,317.68 56.00,318.41 56.00,318.62 C56.00,318.83 55.33,319.00 54.50,319.00 C53.67,319.00 53.00,318.27 53.00,317.38 ZM 165.00 164.62 C165.00,164.41 164.21,163.63 163.25,162.87 C161.66,161.63 161.63,161.66 162.87,163.25 C164.18,164.92 165.00,165.45 165.00,164.62 ZM 198.81 11.97 C199.54,10.38 199.04,9.77 197.50,10.34 C198.05,10.13 198.52,10.00 198.84,10.00 C199.91,10.00 199.93,10.39 198.81,11.97 ZM 196.98 10.56 C196.52,10.78 195.99,11.08 195.40,11.47 C195.16,11.63 194.94,11.78 194.74,11.92 C194.87,11.81 195.00,11.71 195.12,11.63 C195.70,11.22 196.36,10.85 196.98,10.56 Z" fill="rgb(209,128,89)"/>
</g>
</svg>